<svg width="1000" height="1000" viewBox="0 0 1000 1000" fill="none" xmlns="http://www.w3.org/2000/svg">
<mask id="mask0_1202_35" style="mask-type:luminance" maskUnits="userSpaceOnUse" x="60" y="61" width="879" height="879">
<path d="M939 61H60V940H939V61Z" fill="white"/>
</mask>
<g mask="url(#mask0_1202_35)">
<path fill-rule="evenodd" clip-rule="evenodd" d="M455.55 201.64V61H200.64L60 61L60 160.447L60 201.64V456.55H200.64V301.087L337.465 437.912L400.053 500.5L337.465 563.089L200.64 699.914V544.45H60L60 799.36L60 940H159.447H200.64H455.55V799.36H300.087L436.912 662.535L499.5 599.946L562.089 662.535L698.914 799.36H543.45V940H798.36H939V840.554V799.36V544.45H798.36V699.914L661.535 563.089L598.946 500.5L661.535 437.912L798.36 301.087V456.55H939V201.64V61L839.554 61L798.36 61L543.45 61V201.64H698.914L562.089 338.465L499.5 401.053L436.912 338.464L300.087 201.64H455.55Z" fill="#6C4BFF"/>
</g>
</svg>
